<?xml version="1.0" encoding="utf-8"?>
<!-- Generator: Adobe Illustrator 26.5.0, SVG Export Plug-In . SVG Version: 6.00 Build 0)  -->
<svg version="1.1" id="Calque_1" xmlns="http://www.w3.org/2000/svg" xmlns:xlink="http://www.w3.org/1999/xlink" x="0px" y="0px"
	 viewBox="0 0 2834.65 1700.79" style="enable-background:new 0 0 2834.65 1700.79;" xml:space="preserve">
<style type="text/css">
	.st0{fill:none;stroke:#FF0000;stroke-miterlimit:10;}
	.st1{fill:none;stroke:#FF0000;stroke-width:0.01;stroke-miterlimit:10;}
	.st2{stroke:#000000;stroke-miterlimit:10;}
	.st3{font-family:'MyriadPro-Regular';}
	.st4{font-size:25.5299px;}
</style>
<g>
</g>
<path class="st0" d="M653.64,414.69l106.07-70.71H632.15c-4.7,0-8.5,3.81-8.5,8.5v389.76c0,4.7,3.81,8.5,8.5,8.5h62.36v8.5h-62.36
	c-4.7,0-8.5,3.81-8.5,8.5v389.76c0,4.7,3.81,8.5,8.5,8.5h127.56l106.07-70.71c3.19-2.12,4.56-6.11,3.36-9.75L650.28,424.44
	C649.08,420.8,650.45,416.81,653.64,414.69z"/>
<path class="st0" d="M759.71,750.75h69.73v8.5h-69.73l111.46,332.46l-88.09,58.73c-7,4.67-3.7,15.58,4.72,15.58h99.47
	c4.7,0,8.5-3.81,8.5-8.5V352.48c0-4.7-3.81-8.5-8.5-8.5H759.71l-111.46,74.31"/>
<path class="st1" d="M1224.18,850.39"/>
<path class="st1" d="M1253.15,830.64"/>
<text transform="matrix(-2.195647e-07 -0.6655 1 -1.438375e-07 883.5316 424.782)" class="st2 st3 st4">Pauline F.</text>
</svg>
